<?xml version="1.0" standalone="no"?>
<!DOCTYPE svg PUBLIC "-//W3C//DTD SVG 20010904//EN"
 "http://www.w3.org/TR/2001/REC-SVG-20010904/DTD/svg10.dtd">
<svg version="1.0" xmlns="http://www.w3.org/2000/svg"
 width="1400.000000pt" height="1400.000000pt" viewBox="0 0 1400.000000 1400.000000"
 preserveAspectRatio="xMidYMid meet">
<metadata>
Created by potrace 1.14, written by Peter Selinger 2001-2017
</metadata>
<g transform="translate(0.000000,1400.000000) scale(0.100000,-0.100000)"
fill="#000000" stroke="none">
<path d="M3566 10523 c-3 -3 -63 -7 -133 -9 -151 -3 -259 -11 -273 -19 -6 -3
-10 -1 -10 5 0 6 -5 8 -12 3 -14 -8 -20 -9 -88 -17 -25 -3 -58 -8 -75 -11 -16
-3 -59 -10 -95 -16 -36 -6 -72 -13 -80 -16 -8 -3 -19 -7 -25 -7 -23 -3 -110
-22 -122 -26 -5 -2 -12 -4 -18 -5 -36 -6 -318 -96 -360 -114 -11 -5 -60 -26
-110 -46 -94 -39 -302 -140 -370 -181 -22 -13 -47 -27 -55 -31 -8 -4 -46 -27
-85 -52 -38 -25 -80 -51 -92 -58 -25 -13 -240 -173 -287 -213 -94 -81 -135
-118 -261 -246 -77 -77 -147 -149 -155 -160 -25 -32 -105 -129 -110 -134 -12
-12 -120 -161 -162 -225 -106 -160 -222 -375 -303 -560 -39 -88 -47 -107 -50
-125 -2 -10 -8 -27 -13 -37 -20 -39 -96 -278 -107 -335 -2 -11 -7 -28 -10 -38
-3 -10 -8 -27 -10 -37 -2 -10 -11 -51 -19 -90 -21 -98 -27 -132 -31 -173 -2
-19 -4 -35 -5 -35 -4 0 -14 -77 -27 -210 -4 -44 -8 -181 -8 -305 0 -204 4
-281 20 -420 3 -25 7 -58 9 -75 2 -16 6 -37 9 -45 3 -8 8 -33 11 -55 4 -32 22
-133 25 -142 1 -2 2 -5 2 -8 1 -3 2 -8 3 -12 1 -5 8 -35 16 -68 17 -75 17 -74
20 -77 2 -3 5 -17 14 -54 14 -66 80 -253 126 -364 18 -41 33 -79 34 -85 5 -22
140 -290 148 -293 4 -2 8 -8 8 -14 0 -5 9 -22 20 -38 11 -15 17 -30 13 -34 -3
-3 -2 -6 3 -6 5 0 23 -25 39 -55 17 -30 33 -55 38 -55 4 0 7 -7 7 -15 0 -8 5
-15 10 -15 6 0 10 -6 10 -13 0 -8 9 -22 20 -32 11 -10 20 -24 20 -32 0 -7 5
-13 10 -13 6 0 10 -6 10 -14 0 -8 3 -16 8 -18 4 -1 26 -28 49 -59 23 -31 49
-63 58 -72 9 -10 13 -17 8 -17 -4 0 -3 -4 3 -8 6 -4 39 -41 74 -82 108 -127
387 -398 465 -450 12 -8 29 -22 38 -30 23 -21 36 -31 79 -60 21 -14 38 -28 38
-32 0 -5 4 -8 10 -8 11 0 164 -102 168 -112 2 -5 8 -8 13 -8 5 0 26 -11 47
-23 95 -60 319 -177 338 -177 8 0 14 -5 14 -10 0 -6 3 -9 8 -8 4 1 16 -3 27
-9 11 -6 23 -12 27 -12 4 -1 28 -10 54 -21 25 -11 51 -20 58 -20 7 0 16 -4 21
-9 22 -20 350 -123 470 -147 11 -2 31 -6 45 -9 14 -4 36 -8 50 -11 14 -3 34
-8 45 -11 11 -4 34 -7 50 -8 17 -1 30 -3 30 -4 0 -2 11 -4 25 -6 43 -5 124
-16 147 -20 107 -18 500 -25 648 -12 126 12 205 22 270 37 25 6 62 13 81 16
46 7 61 11 102 23 18 5 35 10 37 10 3 1 6 1 8 2 1 0 13 2 27 5 60 11 378 124
432 154 10 6 23 10 29 10 6 0 72 31 147 68 159 80 184 93 194 107 4 6 8 7 8 2
0 -4 36 15 81 43 44 27 82 50 85 50 18 0 396 269 501 357 12 10 35 28 50 40
15 12 42 34 58 48 17 14 52 45 79 68 178 153 466 441 641 642 33 38 70 80 83
93 12 12 22 26 22 29 0 3 10 15 23 27 12 12 41 46 64 76 23 30 50 64 60 75 10
11 32 38 48 60 17 22 40 51 53 65 12 14 22 28 22 31 0 3 11 19 25 35 14 16 25
25 25 19 0 -5 13 -25 28 -43 15 -17 45 -55 67 -83 22 -28 57 -69 77 -92 21
-23 38 -48 38 -54 0 -7 4 -13 8 -13 4 0 35 -33 69 -72 34 -40 74 -86 88 -103
15 -16 50 -56 78 -89 29 -32 90 -98 137 -147 47 -48 92 -96 101 -106 43 -48
312 -300 409 -383 36 -30 70 -59 76 -65 6 -5 28 -23 50 -40 21 -16 54 -43 74
-60 20 -16 49 -39 65 -50 15 -11 42 -32 60 -47 18 -16 37 -28 43 -28 6 0 12
-4 14 -8 2 -5 46 -38 98 -73 52 -35 97 -67 98 -71 2 -5 8 -8 13 -8 5 0 35 -17
66 -37 32 -21 67 -43 78 -49 11 -6 49 -28 85 -48 36 -20 99 -53 140 -74 41
-20 78 -41 81 -45 3 -5 10 -9 15 -8 5 0 27 -8 49 -18 22 -10 43 -18 48 -19 4
-1 22 -9 40 -19 17 -9 37 -18 42 -19 6 -1 28 -10 50 -19 42 -19 259 -94 285
-100 8 -2 51 -12 95 -24 44 -11 92 -22 108 -25 109 -23 127 -26 172 -32 22 -3
54 -7 70 -10 47 -7 184 -17 252 -18 35 -1 63 -4 63 -8 0 -4 12 -3 28 1 31 8
64 7 81 -3 6 -4 11 -4 11 1 0 4 24 8 53 9 135 2 344 25 368 40 8 5 9 3 4 -6
-5 -9 -4 -11 3 -6 12 7 26 11 86 20 30 5 159 31 201 40 6 2 27 6 48 11 20 4
40 11 43 16 3 5 9 7 14 4 10 -6 351 105 399 129 15 8 31 12 35 9 3 -4 6 -1 6
6 0 7 5 9 10 6 6 -3 10 -2 10 3 0 5 6 9 14 9 13 0 326 151 336 162 3 3 25 17
50 30 73 39 290 183 290 193 0 4 6 8 13 8 7 0 23 10 37 23 14 12 48 39 75 60
162 124 349 304 495 477 30 36 57 67 60 70 5 4 156 211 188 256 39 55 172 286
212 369 25 50 49 93 55 97 5 4 6 8 2 8 -4 0 -2 10 5 23 7 12 13 24 13 27 1 3
9 21 17 40 9 19 29 67 43 105 15 39 31 79 36 90 9 21 39 113 43 130 2 6 9 30
16 55 8 25 14 48 16 53 1 4 3 9 4 12 1 3 3 8 4 13 1 4 8 30 15 58 7 29 14 60
16 70 2 11 4 19 5 19 2 0 7 23 15 70 9 52 13 70 15 70 1 0 3 9 4 20 2 18 8 54
22 150 36 243 40 629 8 890 -7 60 -41 270 -50 305 -3 14 -7 34 -9 45 -4 27
-34 147 -42 165 -3 8 -7 22 -9 30 -4 24 -12 55 -14 58 -2 1 -3 5 -4 10 -1 4
-4 12 -7 17 -4 6 -9 24 -13 40 -8 36 -69 201 -98 265 -11 25 -21 50 -22 55 -3
18 -149 307 -173 342 -13 19 -23 36 -23 38 0 6 -62 109 -70 115 -3 3 -21 30
-40 60 -39 63 -128 181 -144 192 -6 4 -7 8 -3 8 5 0 2 6 -5 13 -7 8 -26 31
-43 52 -70 89 -319 347 -400 415 -17 14 -57 47 -90 75 -75 63 -86 71 -210 160
-55 40 -136 95 -140 95 -3 0 -35 19 -72 43 -38 24 -88 54 -113 66 -25 13 -83
44 -130 68 -47 24 -87 45 -90 45 -3 1 -33 14 -67 29 -90 40 -264 104 -378 139
-145 44 -168 51 -190 55 -11 2 -20 4 -20 5 0 2 -19 6 -65 14 -19 3 -50 10 -68
15 -18 5 -35 10 -37 10 -3 1 -6 1 -7 2 -2 0 -19 2 -38 4 -19 1 -35 3 -35 4 0
3 -16 5 -95 15 -19 2 -60 7 -90 11 -30 4 -80 8 -110 10 -30 2 -55 4 -55 5 0 1
-196 9 -240 10 -74 2 -379 -28 -450 -43 -52 -11 -101 -21 -115 -21 -8 -1 -21
-5 -27 -9 -7 -5 -13 -6 -13 -3 0 2 -24 -2 -52 -10 -29 -8 -62 -17 -73 -19 -32
-7 -187 -56 -220 -70 -16 -7 -59 -23 -95 -35 -36 -13 -76 -31 -90 -39 -13 -9
-26 -15 -27 -13 -2 1 -24 -6 -49 -18 -26 -11 -50 -20 -55 -20 -5 0 -9 -4 -9
-10 0 -5 -3 -9 -7 -8 -15 4 -53 -14 -53 -24 0 -6 -3 -8 -6 -5 -4 4 -37 -10
-73 -30 -36 -19 -91 -49 -121 -66 -30 -16 -97 -56 -149 -88 -51 -33 -95 -59
-97 -59 -7 0 -149 -105 -152 -113 -2 -4 -8 -5 -13 -1 -5 3 -9 0 -9 -5 0 -6 -4
-11 -10 -11 -10 0 -37 -20 -72 -52 -10 -10 -22 -18 -28 -18 -5 0 -10 -4 -10
-10 0 -5 -5 -10 -11 -10 -5 0 -24 -13 -42 -30 -18 -16 -35 -30 -38 -30 -3 0
-15 -8 -26 -17 -12 -10 -43 -36 -69 -58 -46 -38 -175 -150 -258 -225 -52 -45
-424 -418 -455 -456 -21 -25 -120 -138 -209 -239 -15 -17 -45 -53 -67 -80 -21
-28 -42 -52 -45 -55 -3 -3 -28 -34 -55 -70 -28 -36 -56 -69 -62 -73 -7 -4 -13
-13 -13 -20 0 -7 -9 -18 -19 -24 -17 -10 -22 -8 -37 15 -9 15 -23 34 -30 42
-8 8 -53 65 -101 125 -89 111 -103 130 -136 168 -125 147 -129 152 -225 257
-48 52 -160 166 -249 255 -150 148 -201 195 -323 301 -25 21 -50 44 -56 49 -6
6 -26 21 -44 35 -18 14 -42 33 -54 43 -11 10 -55 44 -96 75 -41 32 -77 59 -80
62 -3 3 -34 25 -70 50 -36 24 -66 48 -68 52 -2 4 -10 8 -18 8 -8 0 -14 5 -14
10 0 6 -4 10 -9 10 -4 0 -41 22 -82 49 -138 90 -379 222 -539 294 -161 73
-515 195 -544 188 -4 -1 -15 4 -24 11 -13 11 -14 11 -8 0 7 -12 4 -12 -15 -1
-13 7 -33 14 -44 16 -11 2 -41 8 -67 14 -26 6 -51 8 -57 5 -5 -4 -12 -2 -16 3
-3 5 -14 8 -25 6 -11 -2 -22 0 -24 4 -3 4 -22 8 -44 9 -22 2 -50 5 -63 8 -24
5 -88 10 -206 18 -33 2 -65 6 -71 10 -5 3 -12 3 -16 -1z m94 -1477 c30 -3 69
-8 85 -11 17 -3 46 -7 65 -10 19 -3 76 -17 125 -32 50 -14 95 -26 100 -28 37
-8 275 -114 325 -144 25 -15 66 -38 93 -51 26 -14 47 -28 47 -32 0 -5 5 -8 10
-8 12 0 94 -52 98 -62 2 -5 8 -8 14 -8 6 0 23 -10 38 -22 15 -13 37 -30 50
-38 42 -28 175 -134 178 -142 2 -4 8 -8 12 -8 5 0 20 -10 33 -22 13 -13 59
-54 102 -93 99 -88 319 -307 405 -405 36 -40 74 -84 85 -96 32 -36 81 -95 132
-159 27 -33 53 -66 60 -73 7 -7 27 -33 44 -57 18 -25 36 -45 41 -45 4 0 8 -7
8 -15 0 -8 3 -15 8 -15 4 0 18 -18 32 -40 14 -22 28 -40 32 -40 5 0 8 -6 8
-13 0 -8 11 -24 25 -37 14 -13 25 -28 25 -32 0 -5 6 -15 13 -23 28 -30 157
-223 157 -235 0 -6 7 -13 15 -16 34 -13 24 -32 -144 -275 -24 -35 -58 -83 -75
-105 -17 -23 -38 -52 -46 -64 -8 -12 -20 -28 -25 -34 -6 -6 -35 -42 -65 -81
-30 -38 -58 -71 -62 -73 -5 -2 -8 -10 -8 -17 0 -7 -4 -15 -8 -17 -5 -1 -25
-25 -45 -51 -21 -27 -37 -45 -37 -40 -1 4 -6 -2 -13 -14 -12 -20 -32 -44 -175
-202 -147 -163 -435 -440 -518 -500 -19 -13 -34 -28 -34 -33 0 -4 -4 -8 -10
-8 -5 0 -18 -8 -28 -17 -29 -27 -51 -44 -127 -97 -38 -27 -76 -56 -82 -65 -7
-8 -13 -12 -13 -8 0 4 -22 -8 -49 -27 -56 -39 -235 -142 -296 -170 -89 -40
-131 -59 -150 -66 -31 -12 -59 -23 -65 -25 -3 -1 -44 -14 -92 -29 -99 -31 -98
-30 -228 -52 -93 -16 -356 -21 -410 -9 -14 4 -47 8 -74 10 -27 3 -56 7 -65 10
-9 2 -34 7 -56 11 -131 19 -501 146 -513 176 -2 4 -10 8 -18 8 -26 0 -205 111
-329 204 -91 69 -279 253 -348 341 -26 33 -51 65 -55 70 -19 23 -112 165 -112
170 0 3 -11 23 -25 45 -14 22 -25 46 -25 55 0 8 -5 15 -11 15 -5 0 -7 5 -4 10
3 6 3 10 -2 10 -20 0 -136 306 -159 420 -2 8 -12 59 -23 112 -11 53 -20 105
-20 115 0 10 -3 50 -7 88 -14 139 -7 366 16 494 5 31 11 68 14 84 3 15 7 35
10 45 5 16 14 57 20 92 2 8 6 22 9 30 74 203 95 255 120 310 37 76 116 214
165 285 119 172 332 391 471 484 20 14 38 27 41 31 6 7 124 81 174 109 63 36
71 40 146 74 67 31 110 49 117 48 2 0 27 11 58 24 30 14 55 23 55 20 0 -2 19
3 43 11 23 8 60 19 82 24 121 27 143 32 175 36 19 3 46 7 60 10 14 2 72 7 130
11 58 3 106 6 107 7 3 2 118 -3 173 -8z m6995 -1 c68 -5 82 -7 155 -19 119
-19 346 -80 368 -98 6 -6 12 -7 12 -3 0 4 7 2 15 -5 8 -7 15 -9 15 -5 0 4 6 2
13 -4 8 -6 17 -8 20 -4 4 3 7 1 7 -5 0 -7 6 -12 14 -12 8 0 27 -6 43 -14 96
-48 127 -64 208 -113 50 -29 99 -59 110 -66 31 -19 109 -80 117 -92 4 -5 8 -7
8 -3 0 24 264 -240 340 -341 14 -18 34 -45 45 -59 102 -133 209 -338 275 -527
33 -94 68 -220 74 -267 2 -18 7 -45 11 -60 4 -14 8 -46 10 -70 2 -23 4 -43 5
-43 7 0 11 -99 10 -240 -1 -203 -3 -245 -13 -245 -5 0 -6 -4 -3 -9 4 -5 -3
-56 -14 -113 -12 -57 -23 -114 -26 -128 -3 -14 -23 -77 -45 -140 -22 -63 -40
-123 -40 -132 0 -10 -4 -18 -9 -18 -5 0 -16 -22 -25 -50 -9 -27 -21 -50 -26
-50 -5 0 -9 -9 -9 -19 0 -11 -7 -26 -15 -35 -8 -8 -15 -19 -15 -26 0 -11 -9
-26 -94 -158 -52 -81 -46 -73 -149 -197 -172 -208 -405 -392 -647 -511 -101
-50 -236 -105 -257 -106 -5 0 -14 -4 -20 -10 -7 -6 -13 -7 -13 -3 0 4 -7 2
-15 -5 -8 -7 -15 -10 -15 -6 0 3 -15 0 -32 -7 -18 -8 -36 -14 -41 -15 -8 -1
-95 -19 -137 -28 -14 -3 -36 -7 -50 -9 -14 -1 -38 -6 -55 -9 -90 -17 -341 -24
-422 -12 -23 4 -55 9 -70 11 -15 2 -37 6 -48 9 -11 2 -33 7 -50 11 -59 13
-220 67 -229 76 -6 5 -20 9 -33 9 -13 0 -23 5 -23 11 0 5 -4 8 -9 4 -5 -3 -17
2 -25 11 -9 8 -16 13 -16 10 0 -11 -297 150 -320 174 -3 3 -17 11 -32 19 -15
8 -37 22 -47 33 -11 10 -23 18 -26 18 -3 0 -11 5 -18 10 -7 6 -48 37 -92 70
-44 32 -92 69 -107 82 -15 13 -40 33 -56 45 -16 12 -40 33 -54 45 -146 130
-200 180 -308 289 -101 102 -203 210 -295 313 -39 44 -86 99 -120 141 -22 27
-48 57 -57 67 -10 10 -18 23 -18 28 0 6 -4 10 -8 10 -5 0 -21 18 -38 40 -16
22 -38 51 -49 64 -11 13 -29 36 -40 51 -11 16 -25 33 -30 39 -12 12 -161 214
-185 250 -8 13 -27 41 -43 64 l-27 42 31 50 c17 27 34 50 39 50 4 0 13 13 19
28 7 15 22 39 34 53 12 13 28 36 36 52 8 15 18 27 22 27 4 0 18 17 30 38 13
20 26 39 29 42 4 4 50 62 82 105 4 6 23 28 40 51 18 22 44 55 58 73 14 18 30
38 37 45 6 7 35 42 64 77 29 35 65 76 81 92 16 15 27 27 24 27 -3 0 15 20 40
45 24 25 44 48 44 50 0 10 371 377 439 435 35 30 82 72 105 92 23 21 49 40 59
43 9 4 17 10 17 14 0 4 30 29 68 56 37 27 69 52 72 56 3 3 50 36 105 73 55 36
108 72 118 78 10 7 23 12 28 11 5 -2 9 1 9 5 0 4 30 23 68 42 37 19 69 37 72
40 3 3 25 14 50 25 25 11 48 23 51 28 3 5 8 8 10 7 6 -2 41 10 61 21 10 5 25
9 33 9 8 0 15 5 15 12 0 6 3 9 6 5 3 -3 28 3 56 14 27 10 68 24 91 29 23 6 49
12 57 14 73 19 108 24 195 32 39 3 71 7 72 8 3 2 138 -3 218 -9z"/>
<path d="M3507 8554 c-1 -1 -24 -4 -52 -8 -27 -3 -72 -10 -100 -16 -27 -6 -57
-12 -65 -13 -8 -2 -35 -9 -60 -17 -25 -7 -48 -13 -52 -12 -5 1 -8 -3 -8 -9 0
-5 -4 -8 -8 -5 -5 3 -30 -6 -55 -19 -25 -14 -53 -25 -62 -25 -8 0 -15 -4 -15
-10 0 -5 -11 -12 -25 -16 -14 -3 -25 -10 -25 -15 0 -5 -33 -24 -72 -43 -84
-41 -132 -68 -136 -78 -2 -5 -10 -8 -18 -8 -9 0 -12 -4 -9 -10 3 -5 2 -10 -4
-10 -11 0 -79 -67 -98 -96 -16 -24 -44 -85 -47 -102 -1 -6 -17 -24 -35 -39
-34 -28 -98 -113 -85 -113 3 0 2 -6 -4 -12 -18 -23 -31 -123 -26 -204 5 -78
11 -129 14 -129 1 0 4 -12 6 -27 3 -16 1 -28 -4 -28 -8 0 -64 -93 -69 -115 -1
-5 -5 -21 -8 -35 -16 -63 -10 -192 13 -250 3 -8 6 -18 7 -22 2 -5 4 -11 5 -15
1 -5 2 -11 1 -15 0 -5 2 -8 7 -8 4 0 13 -13 20 -30 15 -33 84 -102 130 -130
17 -10 49 -25 73 -33 42 -14 42 -15 69 -103 14 -49 36 -111 48 -138 12 -27 22
-50 22 -51 0 -6 -122 -85 -131 -85 -5 0 -9 -4 -9 -10 0 -5 -7 -10 -15 -10 -8
0 -15 -4 -15 -10 0 -5 -4 -10 -9 -10 -12 0 -163 -100 -173 -114 -5 -7 -8 -7
-8 -1 0 6 -3 6 -8 -1 -4 -6 -29 -25 -57 -44 -75 -51 -113 -91 -118 -127 -3
-18 -2 -33 2 -33 4 0 8 -11 9 -25 1 -14 9 -36 18 -50 8 -13 15 -26 15 -29 -1
-13 22 -73 45 -117 7 -14 11 -29 7 -33 -3 -3 -1 -6 6 -6 7 0 9 -5 6 -10 -12
-20 52 -33 168 -34 64 -1 117 2 117 7 0 4 5 5 12 1 18 -12 78 -11 78 0 0 8 3
8 8 1 4 -6 21 -11 37 -11 17 0 33 5 37 11 5 6 8 6 8 0 0 -6 57 -10 150 -10 83
0 150 4 150 8 0 5 5 5 12 1 19 -12 228 -11 228 1 0 6 3 7 8 0 10 -13 145 -14
154 -1 5 7 8 7 8 1 0 -14 150 -14 150 0 0 6 3 7 8 0 9 -12 152 -15 152 -3 0 5
5 6 12 2 17 -11 228 -12 228 -1 0 4 5 5 12 1 18 -12 78 -11 78 0 0 8 3 8 8 1
4 -6 21 -11 37 -11 17 0 33 5 37 11 5 6 8 6 8 0 0 -6 57 -10 150 -10 83 0 150
4 150 8 0 5 9 6 19 2 22 -7 51 18 51 44 0 10 3 21 7 25 4 3 8 13 9 22 1 8 10
38 19 67 9 28 18 61 20 72 2 11 4 20 5 20 1 0 3 7 5 15 2 8 10 42 17 75 8 33
14 71 14 85 -1 14 2 27 5 30 10 9 -10 64 -33 90 -26 29 -105 93 -157 129 -20
13 -38 27 -41 31 -3 3 -19 15 -37 25 -43 25 -47 39 -18 74 14 16 25 32 25 36
0 4 9 19 20 35 11 15 17 30 13 34 -3 3 -1 6 5 6 7 0 11 3 10 8 -1 4 8 27 19
52 51 114 82 225 110 400 8 49 12 443 5 455 -3 5 -7 25 -8 45 -1 19 -7 53 -12
75 -6 22 -12 54 -14 70 -2 17 -6 32 -10 35 -4 3 -10 21 -13 40 -3 19 -11 41
-18 49 -7 8 -11 16 -9 18 1 2 -7 25 -19 51 -12 26 -22 50 -21 54 1 3 -5 12
-13 18 -8 7 -15 17 -15 22 0 15 -97 137 -144 182 -52 49 -175 136 -193 136 -7
0 -13 5 -13 10 0 6 -6 10 -13 10 -7 0 -32 9 -55 20 -38 19 -124 45 -182 56
-14 3 -32 7 -40 9 -46 13 -331 29 -343 19z"/>
<path d="M9962 8352 c-48 -8 -95 -15 -104 -15 -10 -1 -18 -5 -18 -9 0 -4 -7
-8 -16 -8 -28 0 -180 -76 -240 -121 -56 -41 -164 -143 -164 -154 0 -3 -11 -18
-24 -32 -13 -14 -30 -37 -37 -52 -8 -14 -25 -44 -38 -66 -13 -22 -24 -41 -23
-43 1 -1 -5 -18 -13 -38 -8 -20 -17 -47 -19 -60 -3 -13 -7 -28 -10 -32 -3 -5
-8 -27 -11 -48 -3 -21 -7 -48 -9 -59 -3 -11 -5 -46 -5 -78 -1 -46 -5 -59 -18
-63 -90 -30 -195 -107 -263 -193 -14 -17 -30 -37 -35 -44 -23 -27 -84 -156
-101 -212 -21 -72 -25 -219 -8 -285 16 -61 50 -136 83 -180 32 -44 162 -170
175 -170 3 0 28 -14 57 -31 64 -37 186 -78 251 -83 27 -2 51 -5 53 -7 6 -7
2109 -2 2145 5 73 13 92 17 138 32 56 19 161 70 183 90 8 8 18 14 22 14 15 0
128 120 166 178 23 34 40 62 37 62 -3 0 2 17 11 38 20 48 26 90 26 177 0 59
-8 140 -13 140 -1 0 -3 9 -5 20 -2 10 -8 28 -13 40 -33 71 -56 115 -61 115 -3
0 -12 12 -18 28 -27 58 -155 175 -253 229 -69 38 -105 51 -205 69 -36 6 -32 1
-38 49 -8 60 -13 77 -38 131 -34 71 -90 134 -160 179 -79 51 -213 78 -299 61
-61 -13 -134 -39 -148 -53 -21 -20 -31 -13 -64 47 -44 81 -72 117 -157 200
-93 91 -187 150 -315 195 -53 19 -99 35 -104 34 -4 0 -31 3 -60 7 -89 11 -149
10 -240 -4z"/>
</g>
</svg>
